# xmcd CD database generated by RipIT
#
# Track frame offsets:
# 150
# 19141
# 38281
# 59932
# 80847
# 98850
# 123374
# 143775
# 159403
# 176346
# 195621
#
# Disc length: 2820 seconds
#
# Revision: 0
# Processed by: cddbd v1.5.2PL0 Copyright (c) Steve Scherf et al.
# Submitted via: RipIT 3.6.0 www.suwald.com/ripit/ripit.html on 2009-05-26 at 18:30
#
DISCID=8f0b020b
DTITLE=WSNB - Oktibbeha County
DYEAR=2008
DGENRE=Blues
TTITLE0=Take Your Blues Away
TTITLE1=Missippy Moon
TTITLE2=Give It All Away
TTITLE3=Oktibbeha
TTITLE4=Angel
TTITLE5=Phonecall From Leavenworth
TTITLE6=Jezebel
TTITLE7=Step Light
TTITLE8=Sweet Relief
TTITLE9=These Blues
TTITLE10=Break My Chain
EXTD=
EXTT0=
EXTT1=
EXTT2=
EXTT3=
EXTT4=
EXTT5=
EXTT6=
EXTT7=
EXTT8=
EXTT9=
EXTT10=
PLAYORDER=
